<svg width="354" height="210" viewBox="0 0 354 210" fill="none" xmlns="http://www.w3.org/2000/svg">
<rect width="354" height="210" rx="15" fill="url(#paint0_linear_87_1914)"/>
<path d="M36.924 24.604V30.412C36.924 31.792 36.108 32.728 34.752 32.728C33.456 32.728 32.568 31.816 32.568 30.364V24.604H31.092V30.424C31.092 31.516 31.404 32.416 32.016 33.1C32.628 33.784 33.54 34.12 34.728 34.12C35.916 34.12 36.828 33.784 37.452 33.1C38.088 32.416 38.4 31.492 38.4 30.352V24.604H36.924ZM46.2002 34V30.052C46.2002 28.516 45.3722 27.46 43.8002 27.46C42.9842 27.46 42.3362 27.796 41.8442 28.456V27.592H40.4522V34H41.8802V30.436C41.8802 29.464 42.4562 28.816 43.3562 28.816C44.3042 28.816 44.7722 29.452 44.7722 30.412V34H46.2002ZM48.0939 26.176C48.4659 26.548 49.0419 26.548 49.4139 26.176C49.7859 25.804 49.7859 25.228 49.4139 24.856C49.0419 24.472 48.4659 24.472 48.0939 24.856C47.7219 25.228 47.7219 25.804 48.0939 26.176ZM49.4739 27.592H48.0459V34H49.4739V27.592ZM50.6298 27.592L53.3418 34H54.7698L57.4458 27.592H55.9458L54.0618 32.332L52.1778 27.592H50.6298ZM64.2856 31.216C64.2976 31.108 64.3096 30.964 64.3096 30.772C64.3096 29.776 64.0336 28.984 63.4816 28.372C62.9296 27.76 62.1616 27.46 61.1896 27.46C60.2656 27.46 59.4976 27.784 58.8856 28.432C58.2736 29.08 57.9616 29.86 57.9616 30.784C57.9616 31.732 58.2856 32.536 58.9216 33.172C59.5696 33.808 60.3736 34.12 61.3216 34.12C62.4736 34.12 63.5176 33.568 64.0576 32.572L63.0256 31.888C62.6776 32.548 62.1016 32.884 61.2976 32.884C60.8056 32.884 60.3736 32.728 60.0016 32.416C59.6296 32.092 59.4376 31.696 59.4256 31.216H64.2856ZM61.1896 28.684C62.1016 28.684 62.8096 29.236 62.8576 30.136H59.4976C59.6296 29.26 60.3136 28.684 61.1896 28.684ZM69.2804 27.568C69.1964 27.544 69.0884 27.532 68.9324 27.532C68.1524 27.532 67.5644 27.892 67.1684 28.612V27.592H65.7764V34H67.2044V30.748C67.2044 29.632 67.7804 28.996 68.8724 28.996C69.0284 28.996 69.1604 29.008 69.2804 29.032V27.568ZM72.5633 34.108C73.2833 34.108 73.8713 33.928 74.3153 33.556C74.7593 33.184 74.9873 32.704 74.9873 32.116C74.9873 31.12 74.2193 30.424 72.7673 30.1C71.9393 29.92 71.5793 29.704 71.5793 29.284C71.5793 28.936 72.0353 28.66 72.4793 28.66C73.0913 28.66 73.5353 28.948 73.8233 29.524L74.9273 28.9C74.4833 27.94 73.6793 27.46 72.5273 27.46C71.9033 27.46 71.3633 27.64 70.8953 28.012C70.4273 28.384 70.1993 28.852 70.1993 29.428C70.1993 29.884 70.3553 30.268 70.6553 30.592C71.0033 30.964 71.5433 31.216 72.2513 31.36C73.1273 31.54 73.5713 31.828 73.5713 32.2C73.5713 32.632 73.1033 32.908 72.5633 32.908C71.8793 32.908 71.3753 32.56 71.0273 31.876L69.9113 32.5C70.4033 33.568 71.2913 34.108 72.5633 34.108ZM80.1708 29.656C80.1708 30.016 79.9668 30.196 79.5708 30.196H78.7788C77.6508 30.196 76.1148 30.664 76.1148 32.152V32.224C76.1148 32.776 76.3188 33.232 76.7268 33.58C77.1348 33.928 77.6508 34.108 78.2748 34.108C79.1388 34.108 79.7628 33.784 80.1588 33.124V34H81.5628V29.92C81.5628 29.476 81.4908 29.092 81.3468 28.768C80.9508 27.892 80.1468 27.46 78.9468 27.46C77.6388 27.46 76.7268 28 76.2228 29.092L77.3148 29.716C77.6388 29.032 78.1788 28.696 78.9108 28.696C79.7148 28.696 80.1708 29.128 80.1708 29.656ZM80.1588 31.408C80.1588 32.368 79.5348 32.968 78.5628 32.968C77.9508 32.968 77.5428 32.62 77.5428 32.092C77.5428 31.816 77.6748 31.6 77.9268 31.444C78.1908 31.288 78.4788 31.204 78.7788 31.204H80.1588V31.408ZM83.4131 34H84.8411V24.232H83.4131V34ZM90.157 34H93.865C96.037 34 97.201 32.956 97.201 31.372C97.201 30.916 97.069 30.472 96.793 30.052C96.517 29.632 96.061 29.308 95.413 29.104C96.097 28.804 96.541 28.156 96.673 27.724C96.733 27.496 96.769 27.28 96.769 27.076C96.769 26.308 96.493 25.708 95.941 25.264C95.389 24.82 94.657 24.604 93.745 24.604H90.157V34ZM91.621 25.936H93.553C94.753 25.936 95.293 26.452 95.293 27.232C95.293 28.012 94.681 28.576 93.469 28.576H91.621V25.936ZM91.621 29.872H93.793C95.089 29.872 95.725 30.436 95.725 31.252C95.725 32.104 95.077 32.668 93.889 32.668H91.621V29.872ZM102.39 29.656C102.39 30.016 102.186 30.196 101.79 30.196H100.998C99.8695 30.196 98.3335 30.664 98.3335 32.152V32.224C98.3335 32.776 98.5375 33.232 98.9455 33.58C99.3535 33.928 99.8695 34.108 100.494 34.108C101.358 34.108 101.982 33.784 102.378 33.124V34H103.782V29.92C103.782 29.476 103.71 29.092 103.566 28.768C103.17 27.892 102.366 27.46 101.166 27.46C99.8575 27.46 98.9455 28 98.4415 29.092L99.5335 29.716C99.8575 29.032 100.398 28.696 101.13 28.696C101.934 28.696 102.39 29.128 102.39 29.656ZM102.378 31.408C102.378 32.368 101.754 32.968 100.782 32.968C100.17 32.968 99.7615 32.62 99.7615 32.092C99.7615 31.816 99.8935 31.6 100.146 31.444C100.41 31.288 100.698 31.204 100.998 31.204H102.378V31.408ZM111.38 34V30.052C111.38 28.516 110.552 27.46 108.98 27.46C108.164 27.46 107.516 27.796 107.024 28.456V27.592H105.632V34H107.06V30.436C107.06 29.464 107.636 28.816 108.536 28.816C109.484 28.816 109.952 29.452 109.952 30.412V34H111.38ZM113.226 34H114.654V30.868H114.69L117.366 34H119.25L116.202 30.496L119.094 27.592H117.15L114.666 30.112H114.654V24.232H113.226V34Z" fill="#626260"/>
<path d="M64.259 97.8716L33.7923 97.9999C31.7737 98.0116 30.1051 96.3547 30.0934 94.336L30.0001 71.8273C29.9884 69.8087 31.6453 68.1401 33.664 68.1284L64.1306 68.0001C66.1493 67.9884 67.8179 69.6453 67.8295 71.664L67.9229 94.1727C67.9346 96.203 66.2776 97.8716 64.259 97.8716Z" fill="#B2AEA9"/>
<path d="M44.6557 93.9742C44.4924 93.9742 44.3407 93.8925 44.259 93.7409C44.1423 93.5308 44.2357 93.2624 44.4457 93.1458C45.0758 92.819 45.9393 92.2006 46.4294 91.1504C47.0595 89.8085 46.8844 88.35 46.616 88.2333C46.546 88.1983 46.2893 88.3383 46.126 88.42C45.7176 88.63 45.1458 88.9217 44.4807 88.7C43.8273 88.4783 43.5122 87.9066 43.3605 87.6265C42.357 85.8179 42.0303 81.0921 43.0688 78.7351C43.4189 77.9533 43.8856 77.4865 44.469 77.3465C45.0641 77.2065 45.5542 77.4515 45.9509 77.6499C46.2777 77.8133 46.441 77.8833 46.5344 77.8249C46.9428 77.5799 46.9311 76.0746 46.3477 74.8844C45.8459 73.8343 44.9825 73.2275 44.3407 72.9008C44.1306 72.7958 44.0373 72.5274 44.154 72.3174C44.259 72.1073 44.5274 72.014 44.7374 72.1307C45.4959 72.5157 46.5227 73.2392 47.1295 74.5111C47.7362 75.7713 48.028 77.9416 46.9778 78.5834C46.4527 78.9101 45.9393 78.6534 45.5425 78.4434C45.2392 78.2917 44.9474 78.14 44.6674 78.21C44.2823 78.3033 44.014 78.7467 43.8623 79.0968C42.9521 81.1505 43.2322 85.6195 44.119 87.2064C44.2707 87.4748 44.4457 87.7665 44.7608 87.8716C45.0525 87.9766 45.3325 87.8482 45.7292 87.6382C46.1143 87.4398 46.546 87.2181 47.0011 87.4398C47.9813 87.9066 47.9229 90.0186 47.2228 91.5238C46.6277 92.8074 45.6009 93.5308 44.8424 93.9275C44.7958 93.9625 44.7257 93.9742 44.6557 93.9742Z" fill="#3D3D3C"/>
<path d="M43.2796 79.5287L35.3917 79.5637C35.1466 79.5637 34.9482 79.3653 34.9482 79.132C34.9482 78.8869 35.1466 78.6886 35.38 78.6886L43.2679 78.6536C43.513 78.6536 43.7113 78.8519 43.7113 79.0853C43.723 79.3303 43.5246 79.5287 43.2796 79.5287Z" fill="#3D3D3C"/>
<path d="M43.3138 87.4166L35.4258 87.4517C35.1808 87.4517 34.9824 87.2533 34.9824 87.0199C34.9824 86.7749 35.1808 86.5765 35.4142 86.5765L43.3021 86.5415C43.5472 86.5415 43.7455 86.7399 43.7455 86.9732C43.7455 87.2066 43.5588 87.4166 43.3138 87.4166Z" fill="#3D3D3C"/>
<path d="M53.8505 93.9396C53.7805 93.9396 53.7105 93.9279 53.6522 93.8929C52.8937 93.5079 51.8669 92.7844 51.2601 91.5125C50.5367 90.019 50.4667 87.9069 51.4468 87.4285C51.9019 87.2068 52.3336 87.4285 52.7187 87.6152C53.1154 87.8136 53.3955 87.9419 53.6872 87.8369C54.0139 87.7202 54.2006 87.3702 54.3173 87.1601C55.1808 85.5616 55.4258 81.0925 54.504 79.0505C54.3406 78.7004 54.0723 78.257 53.6872 78.1754C53.4538 78.117 53.3021 77.8836 53.3605 77.6503C53.4188 77.4169 53.6522 77.2652 53.8856 77.3236C54.469 77.4636 54.9474 77.9186 55.2974 78.7004C56.3593 81.0458 56.0676 85.7716 55.0874 87.5919C54.9357 87.8719 54.6207 88.4554 53.9789 88.6771C53.3138 88.9104 52.742 88.6187 52.3336 88.4087C52.1703 88.327 51.9019 88.1987 51.8436 88.222C51.5752 88.3503 51.4235 89.8089 52.0653 91.1391C52.567 92.1893 53.4305 92.7961 54.0722 93.1228C54.2823 93.2278 54.3756 93.4962 54.2589 93.7062C54.1656 93.8462 54.0139 93.9396 53.8505 93.9396Z" fill="#3D3D3C"/>
<path d="M52.0306 77.7433C51.8439 77.7433 51.6805 77.6266 51.6105 77.4399C50.6654 74.6278 52.8474 72.4458 53.5592 72.084C53.7692 71.9673 54.0376 72.0607 54.1543 72.2707C54.2709 72.4808 54.1776 72.7491 53.9676 72.8658C53.6525 73.0292 51.6455 74.7678 52.4507 77.1599C52.5323 77.3932 52.404 77.6383 52.1706 77.72C52.1239 77.7316 52.0773 77.7433 52.0306 77.7433Z" fill="#3D3D3C"/>
<path d="M62.9876 79.4469L55.0997 79.4819C54.8546 79.4819 54.6562 79.2836 54.6562 79.0502C54.6562 78.8051 54.8546 78.6068 55.088 78.6068L62.9759 78.5718C63.221 78.5718 63.4193 78.7701 63.4193 79.0035C63.431 79.2485 63.2326 79.4469 62.9876 79.4469Z" fill="#3D3D3C"/>
<path d="M63.0218 87.3349L55.1338 87.3699C54.8888 87.3699 54.6904 87.1715 54.6904 86.9381C54.6904 86.6931 54.8888 86.4947 55.1222 86.4947L63.0101 86.4597C63.2552 86.4597 63.4535 86.6581 63.4535 86.8915C63.4652 87.1365 63.2668 87.3349 63.0218 87.3349Z" fill="#3D3D3C"/>
<path d="M306.227 71.7513C310.93 77.6638 310.93 85.35 306.227 91.2625M311.157 67.75C317.787 76.0825 317.787 86.9175 311.157 95.25M301.056 74.3363C304.512 78.6676 304.512 84.3188 301.056 88.65M295.871 77.925C297.599 80.0975 297.599 82.9162 295.871 85.0887" stroke="#363B41" stroke-width="2" stroke-linecap="round" stroke-linejoin="round"/>
<path fill-rule="evenodd" clip-rule="evenodd" d="M295.277 186.095V188V189.904H294.438V189.442C294.172 189.785 293.769 190 293.22 190C292.139 190 291.291 189.164 291.291 188C291.291 186.837 292.139 186 293.22 186C293.769 186 294.172 186.215 294.438 186.558V186.095H295.277ZM293.325 186.78C292.599 186.78 292.155 187.33 292.155 188C292.155 188.669 292.599 189.219 293.325 189.219C294.018 189.219 294.486 188.693 294.486 188C294.486 187.307 294.018 186.78 293.325 186.78ZM323.613 188C323.613 187.33 324.057 186.78 324.783 186.78C325.477 186.78 325.944 187.307 325.944 188C325.944 188.693 325.477 189.219 324.783 189.219C324.057 189.219 323.613 188.669 323.613 188ZM326.736 184.566V188V189.904H325.896V189.442C325.63 189.785 325.227 190 324.678 190C323.597 190 322.749 189.164 322.749 188C322.749 186.837 323.597 186 324.678 186C325.227 186 325.63 186.215 325.896 186.558V184.566H326.736ZM305.685 186.741C306.225 186.741 306.573 187.076 306.661 187.665H304.66C304.75 187.115 305.088 186.741 305.685 186.741ZM303.781 188C303.781 186.812 304.572 186 305.702 186C306.782 186 307.525 186.812 307.533 188C307.533 188.111 307.525 188.215 307.516 188.318H304.653C304.774 189.004 305.266 189.251 305.806 189.251C306.193 189.251 306.605 189.107 306.928 188.853L307.339 189.466C306.871 189.857 306.339 190 305.758 190C304.604 190 303.781 189.211 303.781 188ZM315.827 188C315.827 187.33 316.271 186.78 316.997 186.78C317.69 186.78 318.159 187.307 318.159 188C318.159 188.693 317.69 189.219 316.997 189.219C316.271 189.219 315.827 188.669 315.827 188ZM318.949 186.095V188V189.904H318.111V189.442C317.844 189.785 317.441 190 316.892 190C315.811 190 314.963 189.164 314.963 188C314.963 186.837 315.811 186 316.892 186C317.441 186 317.844 186.215 318.111 186.558V186.095H318.949ZM311.091 188C311.091 189.155 311.906 190 313.149 190C313.73 190 314.116 189.872 314.536 189.546L314.133 188.876C313.818 189.1 313.488 189.219 313.124 189.219C312.454 189.211 311.962 188.733 311.962 188C311.962 187.267 312.454 186.789 313.124 186.78C313.488 186.78 313.818 186.9 314.133 187.123L314.536 186.454C314.116 186.127 313.73 186 313.149 186C311.906 186 311.091 186.844 311.091 188ZM320.885 186.558C321.103 186.223 321.418 186 321.902 186C322.072 186 322.314 186.032 322.5 186.104L322.241 186.884C322.064 186.812 321.886 186.789 321.717 186.789C321.168 186.789 320.894 187.139 320.894 187.769V189.904H320.054V186.096H320.885V186.558ZM299.424 186.398C299.02 186.136 298.465 186 297.851 186C296.874 186 296.245 186.462 296.245 187.219C296.245 187.84 296.714 188.223 297.576 188.343L297.972 188.398C298.432 188.462 298.649 188.582 298.649 188.797C298.649 189.092 298.343 189.259 297.77 189.259C297.189 189.259 296.77 189.076 296.487 188.861L296.092 189.506C296.552 189.84 297.133 190 297.762 190C298.875 190 299.521 189.482 299.521 188.757C299.521 188.087 299.013 187.737 298.174 187.618L297.778 187.561C297.415 187.514 297.125 187.443 297.125 187.187C297.125 186.908 297.399 186.741 297.859 186.741C298.351 186.741 298.827 186.925 299.061 187.068L299.424 186.398ZM309.228 186.558C309.445 186.223 309.76 186 310.243 186C310.413 186 310.655 186.032 310.841 186.104L310.582 186.884C310.405 186.812 310.228 186.789 310.058 186.789C309.509 186.789 309.235 187.139 309.235 187.769V189.904H308.397V186.096H309.228V186.558ZM303.087 186.095H301.716V184.94H300.868V186.095H300.086V186.853H300.868V188.59C300.868 189.474 301.215 190 302.207 190C302.571 190 302.99 189.889 303.256 189.705L303.014 188.996C302.764 189.139 302.49 189.211 302.272 189.211C301.853 189.211 301.716 188.956 301.716 188.574V186.853H303.087V186.095ZM290.549 187.514V189.904H289.702V187.785C289.702 187.139 289.427 186.78 288.855 186.78C288.298 186.78 287.911 187.132 287.911 187.793V189.904H287.063V187.785C287.063 187.139 286.782 186.78 286.225 186.78C285.651 186.78 285.28 187.132 285.28 187.793V189.904H284.433V186.096H285.273V186.565C285.588 186.119 285.99 186 286.402 186C286.991 186 287.411 186.255 287.677 186.677C288.032 186.143 288.54 185.992 289.032 186C289.969 186.008 290.549 186.614 290.549 187.514Z" fill="white"/>
<path d="M311.855 179.624H299.146V157.067H311.855V179.624Z" fill="#FF5F00"/>
<path d="M299.952 168.346C299.952 163.77 302.121 159.694 305.5 157.067C303.029 155.146 299.912 154 296.523 154C288.502 154 282 160.423 282 168.346C282 176.269 288.502 182.691 296.523 182.691C299.912 182.691 303.029 181.545 305.5 179.624C302.121 176.997 299.952 172.921 299.952 168.346Z" fill="#EB001B"/>
<path d="M329 168.346C329 176.269 322.498 182.691 314.477 182.691C311.088 182.691 307.971 181.545 305.5 179.624C308.878 176.997 311.048 172.921 311.048 168.346C311.048 163.77 308.878 159.694 305.5 157.067C307.971 155.146 311.088 154 314.477 154C322.498 154 329 160.423 329 168.346Z" fill="#F79E1B"/>
<defs>
<linearGradient id="paint0_linear_87_1914" x1="7.52125" y1="10" x2="337.163" y2="151.675" gradientUnits="userSpaceOnUse">
<stop stop-color="#4A4A49"/>
<stop offset="1" stop-color="#20201F"/>
</linearGradient>
</defs>
</svg>
