<svg width="611" height="399" viewBox="0 0 611 399" fill="none" xmlns="http://www.w3.org/2000/svg">
<g filter="url(#filter0_d_1_141)">
<rect x="24" y="24" width="563" height="351" rx="24" fill="url(#paint0_linear_1_141)"/>
<g clip-path="url(#clip0_1_141)">
<path d="M491.558 326.658V322.552C491.558 320.978 490.597 319.951 488.948 319.951C488.124 319.951 487.232 320.225 486.614 321.115C486.133 320.362 485.446 319.951 484.416 319.951C483.73 319.951 483.043 320.157 482.494 320.909V320.088H481.12V326.658H482.562V323.031C482.562 321.868 483.18 321.32 484.142 321.32C485.103 321.32 485.584 321.936 485.584 323.031V326.658H487.026V323.031C487.026 321.868 487.712 321.32 488.605 321.32C489.567 321.32 490.047 321.936 490.047 323.031V326.658H491.558ZM512.914 320.088H510.579V318.104H509.137V320.088H507.833V321.389H509.137V324.4C509.137 325.905 509.755 326.795 511.403 326.795C512.021 326.795 512.708 326.589 513.189 326.316L512.777 325.084C512.365 325.358 511.884 325.426 511.541 325.426C510.854 325.426 510.579 325.015 510.579 324.331V321.389H512.914V320.088ZM525.069 319.951C524.245 319.951 523.695 320.362 523.352 320.909V320.088H521.91V326.658H523.352V322.962C523.352 321.868 523.833 321.252 524.725 321.252C525 321.252 525.343 321.32 525.618 321.389L526.03 320.02C525.755 320.02 525.343 319.951 525.069 319.951ZM506.665 320.636C505.979 320.157 505.017 319.951 503.987 319.951C502.339 319.951 501.24 320.773 501.24 322.073C501.24 323.168 502.064 323.784 503.506 323.989L504.193 324.057C504.948 324.194 505.361 324.4 505.361 324.742C505.361 325.221 504.811 325.563 503.85 325.563C502.888 325.563 502.133 325.221 501.652 324.879L500.966 325.974C501.721 326.521 502.751 326.795 503.781 326.795C505.704 326.795 506.803 325.905 506.803 324.673C506.803 323.51 505.91 322.894 504.536 322.689L503.85 322.62C503.232 322.552 502.751 322.415 502.751 322.004C502.751 321.525 503.232 321.252 503.987 321.252C504.811 321.252 505.635 321.594 506.047 321.799L506.665 320.636ZM544.914 319.951C544.09 319.951 543.541 320.362 543.197 320.909V320.088H541.755V326.658H543.197V322.962C543.197 321.868 543.678 321.252 544.571 321.252C544.845 321.252 545.189 321.32 545.464 321.389L545.876 320.02C545.601 320.02 545.189 319.951 544.914 319.951ZM526.511 323.373C526.511 325.358 527.884 326.795 530.013 326.795C530.974 326.795 531.661 326.589 532.348 326.042L531.661 324.879C531.112 325.289 530.562 325.494 529.944 325.494C528.777 325.494 527.953 324.673 527.953 323.373C527.953 322.141 528.777 321.32 529.944 321.252C530.562 321.252 531.112 321.457 531.661 321.868L532.348 320.704C531.661 320.157 530.974 319.951 530.013 319.951C527.884 319.951 526.511 321.389 526.511 323.373ZM539.901 323.373V320.088H538.459V320.909C537.979 320.294 537.292 319.951 536.399 319.951C534.545 319.951 533.103 321.389 533.103 323.373C533.103 325.358 534.545 326.795 536.399 326.795C537.361 326.795 538.047 326.453 538.459 325.837V326.658H539.901V323.373ZM534.545 323.373C534.545 322.21 535.3 321.252 536.536 321.252C537.704 321.252 538.528 322.141 538.528 323.373C538.528 324.536 537.704 325.494 536.536 325.494C535.3 325.494 534.545 324.536 534.545 323.373ZM517.309 319.951C515.386 319.951 514.013 321.32 514.013 323.373C514.013 325.426 515.386 326.795 517.378 326.795C518.339 326.795 519.3 326.521 520.056 325.905L519.369 324.879C518.82 325.289 518.133 325.563 517.446 325.563C516.554 325.563 515.661 325.152 515.455 323.989H520.33C520.33 323.784 520.33 323.647 520.33 323.442C520.468 321.32 519.163 319.951 517.309 319.951ZM517.309 321.252C518.202 321.252 518.82 321.799 518.957 322.826H515.524C515.73 321.868 516.279 321.252 517.309 321.252ZM553.155 323.373V317.488H551.712V320.909C551.232 320.294 550.545 319.951 549.652 319.951C547.798 319.951 546.356 321.389 546.356 323.373C546.356 325.358 547.798 326.795 549.652 326.795C550.614 326.795 551.3 326.453 551.712 325.837V326.658H553.155V323.373ZM547.798 323.373C547.798 322.21 548.554 321.252 549.79 321.252C550.957 321.252 551.781 322.141 551.781 323.373C551.781 324.536 550.957 325.494 549.79 325.494C548.554 325.494 547.798 324.536 547.798 323.373ZM499.592 323.373V320.088H498.15V320.909C497.67 320.294 496.983 319.951 496.09 319.951C494.236 319.951 492.794 321.389 492.794 323.373C492.794 325.358 494.236 326.795 496.09 326.795C497.052 326.795 497.738 326.453 498.15 325.837V326.658H499.592V323.373ZM494.305 323.373C494.305 322.21 495.06 321.252 496.296 321.252C497.464 321.252 498.288 322.141 498.288 323.373C498.288 324.536 497.464 325.494 496.296 325.494C495.06 325.494 494.305 324.536 494.305 323.373ZM555.489 325.7C555.558 325.7 555.695 325.7 555.764 325.768C555.833 325.768 555.901 325.837 555.97 325.905C556.039 325.974 556.107 326.042 556.107 326.11C556.107 326.179 556.176 326.247 556.176 326.384C556.176 326.453 556.176 326.589 556.107 326.658C556.039 326.726 556.039 326.795 555.97 326.863C555.901 326.932 555.833 327 555.764 327C555.695 327.068 555.627 327.068 555.489 327.068C555.421 327.068 555.283 327.068 555.215 327C555.146 326.932 555.077 326.932 555.009 326.863C554.94 326.795 554.871 326.726 554.871 326.658C554.803 326.589 554.803 326.521 554.803 326.384C554.803 326.316 554.803 326.179 554.871 326.11C554.94 326.042 554.94 325.974 555.009 325.905C555.077 325.837 555.146 325.768 555.215 325.768C555.352 325.7 555.421 325.7 555.489 325.7ZM555.489 326.863C555.558 326.863 555.627 326.863 555.695 326.795C555.764 326.795 555.833 326.726 555.833 326.658C555.901 326.589 555.901 326.589 555.97 326.521C555.97 326.453 556.039 326.384 556.039 326.316C556.039 326.247 556.039 326.179 555.97 326.11C555.97 326.042 555.901 325.974 555.833 325.974C555.764 325.905 555.764 325.905 555.695 325.837C555.627 325.837 555.558 325.768 555.489 325.768C555.421 325.768 555.352 325.768 555.283 325.837C555.215 325.837 555.146 325.905 555.146 325.974C555.077 326.042 555.077 326.042 555.009 326.11C555.009 326.179 554.94 326.247 554.94 326.316C554.94 326.384 554.94 326.453 555.009 326.521C555.009 326.589 555.077 326.658 555.146 326.658C555.215 326.726 555.215 326.726 555.283 326.795C555.352 326.863 555.421 326.863 555.489 326.863ZM555.558 326.042C555.627 326.042 555.695 326.042 555.764 326.11C555.833 326.179 555.833 326.179 555.833 326.247C555.833 326.316 555.833 326.316 555.764 326.384C555.764 326.384 555.695 326.453 555.627 326.453L555.833 326.658H555.695L555.489 326.453H555.421V326.658H555.283V326.042H555.558ZM555.421 326.179V326.316H555.558H555.627C555.627 326.316 555.627 326.316 555.627 326.247V326.179H555.558H555.421ZM554.665 304.896V304.075H555.009V303.938H554.185V304.075H554.528V304.896H554.665ZM556.245 304.896V303.938H555.97L555.695 304.623L555.421 303.938H555.146V304.896H555.352V304.143L555.627 304.759H555.833L556.107 304.143V304.896H556.245ZM514.837 309.687C515.043 309.823 515.249 310.029 515.455 310.166C511.541 312.766 506.803 314.272 501.79 314.272C488.056 314.272 477 303.254 477 289.636C477 276.018 488.056 265 501.721 265C506.803 265 511.472 266.506 515.386 269.106C515.18 269.243 514.974 269.448 514.768 269.585C508.931 274.649 505.635 281.903 505.635 289.636C505.635 297.3 509 304.623 514.837 309.687ZM532.279 265C527.197 265 522.528 266.506 518.614 269.106C518.82 269.243 519.026 269.448 519.232 269.585C525.069 274.649 528.365 281.903 528.365 289.636C528.365 297.3 525 304.623 519.232 309.687C519.026 309.823 518.82 310.029 518.614 310.166C522.528 312.766 527.266 314.272 532.279 314.272C545.944 314.272 557 303.254 557 289.636C557 276.018 545.944 265 532.279 265ZM516.966 270.269C516.622 270.543 516.348 270.748 516.004 271.022C510.854 275.539 507.558 282.245 507.558 289.636C507.558 297.026 510.854 303.733 516.073 308.249C516.348 308.523 516.691 308.797 517.034 309.002C517.378 308.728 517.652 308.523 517.996 308.249C523.146 303.733 526.442 297.026 526.442 289.636C526.442 282.245 523.146 275.539 517.927 271.022C517.652 270.817 517.309 270.543 516.966 270.269Z" fill="white"/>
</g>
<g clip-path="url(#clip1_1_141)">
<path d="M97.7888 106.103C97.7888 127.804 97.7888 149.299 97.7888 170.845C104.648 170.845 111.404 170.845 118.367 170.845C118.367 169.863 118.367 169.037 118.367 168.21C118.367 152.554 118.367 136.898 118.367 121.242C118.367 118.091 118.523 117.936 121.745 117.884C129.384 117.884 136.971 117.884 144.61 117.884C145.337 117.884 146.117 117.832 146.948 117.781C146.948 116.179 146.948 114.835 146.948 113.44C146.896 109.307 144.194 106.207 140.089 106.155C126.11 106.052 112.079 106.103 97.7888 106.103Z" fill="#FEFDFD"/>
<path d="M69.2598 140.205C69.2598 145.579 69.2598 150.849 69.2598 156.068C77.8341 156.068 86.1486 156.068 94.567 156.068C94.567 150.694 94.567 145.475 94.567 140.205C86.0966 140.205 77.7302 140.205 69.2598 140.205Z" fill="#FEFDFD"/>
<path d="M69.2079 136.898C77.8341 136.898 86.1486 136.898 94.6189 136.898C94.6189 131.525 94.6189 126.306 94.6189 120.984C86.0966 120.984 77.7302 120.984 69.2079 120.984C69.2079 126.358 69.2079 131.525 69.2079 136.898Z" fill="#FEFDFD"/>
<path d="M121.589 120.984C121.589 126.306 121.589 131.576 121.589 136.898C130.059 136.898 138.478 136.898 146.792 136.898C146.792 131.473 146.792 126.306 146.792 120.984C138.322 120.984 130.059 120.984 121.589 120.984Z" fill="#FEFDFD"/>
<path d="M121.537 140.153C121.537 145.63 121.537 150.849 121.537 156.068C130.007 156.068 138.374 156.068 146.74 156.068C146.74 150.694 146.74 145.424 146.74 140.153C138.322 140.153 130.059 140.153 121.537 140.153Z" fill="#FEFDFD"/>
<path d="M94.6194 106.259C94.2037 106.156 93.9958 106.104 93.8399 106.104C88.7473 106.104 83.6547 106.362 78.5621 106.052C71.4948 105.587 67.6494 110.134 69.4682 117.729C77.7826 117.729 86.149 117.729 94.6194 117.729C94.6194 113.854 94.6194 110.134 94.6194 106.259Z" fill="#FEFDFD"/>
<path d="M94.6189 159.374C86.0966 159.374 77.6782 159.374 69.0519 159.374C69.0519 160.511 69.0519 161.544 69.0519 162.578C69.0519 168.21 71.962 171.052 77.6782 171C82.2511 171 86.8241 171 91.397 171C92.4883 171 93.5276 170.897 94.6189 170.845C94.6189 166.815 94.6189 163.146 94.6189 159.374Z" fill="#FEFDFD"/>
<path d="M121.381 170.948C127.981 170.948 134.269 171.103 140.556 170.897C143.674 170.793 146.428 168.262 146.792 165.523C147.052 163.508 146.844 161.441 146.844 159.374C138.27 159.374 129.903 159.374 121.433 159.374C121.381 159.943 121.381 160.356 121.381 160.769C121.381 164.025 121.381 167.28 121.381 170.948Z" fill="#FEFDFD"/>
<path d="M97.7888 106.103C112.079 106.103 126.11 106.052 140.089 106.155C144.194 106.207 146.844 109.255 146.948 113.44C146.948 114.835 146.948 116.179 146.948 117.781C146.117 117.832 145.337 117.884 144.61 117.884C136.971 117.884 129.384 117.884 121.745 117.884C118.523 117.884 118.367 118.039 118.367 121.242C118.367 136.898 118.367 152.554 118.367 168.21C118.367 169.037 118.367 169.863 118.367 170.845C111.404 170.845 104.7 170.845 97.7888 170.845C97.7888 149.299 97.7888 127.856 97.7888 106.103Z" fill="white"/>
<path d="M69.2598 140.205C77.6782 140.205 86.0446 140.205 94.567 140.205C94.567 145.475 94.567 150.694 94.567 156.068C86.1486 156.068 77.8341 156.068 69.2598 156.068C69.2598 150.849 69.2598 145.579 69.2598 140.205Z" fill="white"/>
<path d="M69.2079 136.898C69.2079 131.525 69.2079 126.306 69.2079 120.984C77.7302 120.984 86.0966 120.984 94.6189 120.984C94.6189 126.306 94.6189 131.525 94.6189 136.898C86.1486 136.898 77.8341 136.898 69.2079 136.898Z" fill="white"/>
<path d="M121.589 120.984C130.059 120.984 138.322 120.984 146.792 120.984C146.792 126.254 146.792 131.473 146.792 136.898C138.478 136.898 130.059 136.898 121.589 136.898C121.589 131.525 121.589 126.306 121.589 120.984Z" fill="white"/>
<path d="M121.537 140.153C130.007 140.153 138.27 140.153 146.74 140.153C146.74 145.424 146.74 150.694 146.74 156.068C138.322 156.068 130.007 156.068 121.537 156.068C121.537 150.849 121.537 145.63 121.537 140.153Z" fill="white"/>
<path d="M94.6194 106.259C94.6194 110.134 94.6194 113.854 94.6194 117.781C86.149 117.781 77.7826 117.781 69.4682 117.781C67.6494 110.134 71.4948 105.587 78.5621 106.052C83.6547 106.311 88.7473 106.104 93.8399 106.104C93.9958 106.104 94.2037 106.156 94.6194 106.259Z" fill="white"/>
<path d="M94.6189 159.374C94.6189 163.146 94.6189 166.815 94.6189 170.845C93.5796 170.897 92.4883 171 91.397 171C86.8241 171 82.2511 171 77.6782 171C71.962 171.052 69.0519 168.21 69.0519 162.578C69.0519 161.544 69.0519 160.563 69.0519 159.374C77.6782 159.374 86.0966 159.374 94.6189 159.374Z" fill="white"/>
<path d="M121.381 170.948C121.381 167.28 121.381 164.025 121.381 160.769C121.381 160.356 121.433 159.943 121.433 159.374C129.903 159.374 138.27 159.374 146.844 159.374C146.844 161.441 147.052 163.508 146.792 165.523C146.428 168.262 143.674 170.793 140.556 170.897C134.32 171.103 127.981 170.948 121.381 170.948Z" fill="white"/>
</g>
</g>
<defs>
<filter id="filter0_d_1_141" x="0" y="0" width="611" height="399" filterUnits="userSpaceOnUse" color-interpolation-filters="sRGB">
<feFlood flood-opacity="0" result="BackgroundImageFix"/>
<feColorMatrix in="SourceAlpha" type="matrix" values="0 0 0 0 0 0 0 0 0 0 0 0 0 0 0 0 0 0 127 0" result="hardAlpha"/>
<feOffset/>
<feGaussianBlur stdDeviation="12"/>
<feColorMatrix type="matrix" values="0 0 0 0 0.645833 0 0 0 0 0.645833 0 0 0 0 0.645833 0 0 0 0.35 0"/>
<feBlend mode="normal" in2="BackgroundImageFix" result="effect1_dropShadow_1_141"/>
<feBlend mode="normal" in="SourceGraphic" in2="effect1_dropShadow_1_141" result="shape"/>
</filter>
<linearGradient id="paint0_linear_1_141" x1="306" y1="-49.5" x2="146" y2="440" gradientUnits="userSpaceOnUse">
<stop stop-color="#FDAE8F"/>
<stop offset="1" stop-color="#FD1C68"/>
</linearGradient>
<clipPath id="clip0_1_141">
<rect width="80" height="62" fill="white" transform="translate(477 265)"/>
</clipPath>
<clipPath id="clip1_1_141">
<rect width="78" height="65" fill="white" transform="translate(69 106)"/>
</clipPath>
</defs>
</svg>
