<?xml version="1.0" encoding="UTF-8" standalone="no"?>
<svg
   class="ionicon"
   viewBox="0 0 512 512"
   version="1.1"
   id="svg6"
   sodipodi:docname="logo-whatsapp.svg"
   inkscape:version="1.1.2 (08b2f3d93c, 2022-04-05)"
   xmlns:inkscape="http://www.inkscape.org/namespaces/inkscape"
   xmlns:sodipodi="http://sodipodi.sourceforge.net/DTD/sodipodi-0.dtd"
   xmlns="http://www.w3.org/2000/svg"
   xmlns:svg="http://www.w3.org/2000/svg"
   xmlns:rdf="http://www.w3.org/1999/02/22-rdf-syntax-ns#"
   xmlns:cc="http://creativecommons.org/ns#"
   xmlns:dc="http://purl.org/dc/elements/1.1/">
  <defs
     id="defs10" />
  <sodipodi:namedview
     id="namedview8"
     pagecolor="#ffffff"
     bordercolor="#666666"
     borderopacity="1.0"
     inkscape:pageshadow="2"
     inkscape:pageopacity="0.0"
     inkscape:pagecheckerboard="0"
     showgrid="false"
     inkscape:zoom="1.0390625"
     inkscape:cx="40.902256"
     inkscape:cy="256.4812"
     inkscape:window-width="1360"
     inkscape:window-height="710"
     inkscape:window-x="0"
     inkscape:window-y="402"
     inkscape:window-maximized="1"
     inkscape:current-layer="svg6" />
  <title
     id="title2">Logo Whatsapp</title>
  <path
     d="M 414.73024,97.1 A 222.14014,222.14 0 0 0 256.94015,32 C 134.00006,32 33.920002,131.58 33.870002,254 A 220.61014,220.61 0 0 0 63.65002,365 L 32,480 150.25007,449.13 a 223.63015,223.63 0 0 0 106.60007,27 h 0.09 c 122.93007,0 223.00013,-99.59 223.06013,-222 A 220.18014,220.18 0 0 0 414.73024,97.1 Z M 256.94015,438.66 h -0.08 a 185.75012,185.75 0 0 1 -94.36007,-25.72 l -6.77,-4 -70.170046,18.32 18.730016,-68.09 -4.410007,-7 A 183.46011,183.46 0 0 1 71.530025,254 c 0,-101.73 83.210045,-184.5 185.480115,-184.5 a 185.00012,185 0 0 1 185.33012,184.64 c -0.0401,101.74 -83.21005,184.52 -185.40011,184.52 z M 358.63021,300.47 c -5.57001,-2.78 -33.00002,-16.2 -38.08003,-18.05 -5.08,-1.85 -8.83,-2.78 -12.54001,2.78 -3.71,5.56 -14.4,18 -17.65,21.75 -3.25,3.75 -6.50001,4.16 -12.07001,1.38 -5.57001,-2.78 -23.54001,-8.63 -44.83004,-27.53 -16.57,-14.71 -27.75,-32.87 -31.00001,-38.42 -3.25,-5.55 -0.35,-8.56 2.44001,-11.32 2.50999,-2.49 5.56999,-6.48 8.36,-9.72 2.79,-3.24 3.72,-5.56 5.57,-9.26 1.85,-3.7 0.93,-6.94 -0.46,-9.71 -1.39,-2.77 -12.54001,-30.08 -17.18001,-41.19 -4.53001,-10.82 -9.12001,-9.35 -12.54001,-9.52 -3.25,-0.16 -7,-0.2 -10.69,-0.2 a 20.530013,20.53 0 0 0 -14.86001,6.94 c -5.11001,5.56 -19.51002,19 -19.51002,46.28 0,27.28 20.00002,53.68 22.76002,57.38 2.75999,3.7 39.30003,59.73 95.21006,83.76 a 323.1102,323.11 0 0 0 31.78002,11.68 c 13.35,4.22 25.50002,3.63 35.10002,2.2 10.71001,-1.59 33.00002,-13.42 37.63003,-26.38 4.63,-12.96 4.63999,-24.06 3.25,-26.37 -1.39001,-2.31 -5.11,-3.71 -10.69001,-6.48 z"
     fill-rule="evenodd"
     id="path4"
     style="fill:#00cf00;stroke-width:1;fill-opacity:1" />
  <metadata
     id="metadata979">
    <rdf:RDF>
      <cc:Work
         rdf:about="">
        <dc:title>Logo Whatsapp</dc:title>
      </cc:Work>
    </rdf:RDF>
  </metadata>
</svg>
